<?xml version="1.0" encoding="utf-8"?>
<!-- Generator: Adobe Illustrator 24.1.3, SVG Export Plug-In . SVG Version: 6.00 Build 0)  -->
<svg version="1.1" id="Layer_1" xmlns="http://www.w3.org/2000/svg" xmlns:xlink="http://www.w3.org/1999/xlink" x="0px" y="0px"
	 viewBox="0 0 280 280" style="enable-background:new 0 0 280 280;" xml:space="preserve">
<style type="text/css">
	.st0{fill:#00A2B8;}
</style>
<g>
	<g>
		<g>
			<g>
				<path class="st0" d="M193.82,187.37l-21.18-18.34c-1.27-1.1-3.16-1.1-4.44,0l-21.18,18.34c-0.74,0.64-1.17,1.58-1.17,2.56v26.68
					c0,0.47,0.38,0.85,0.85,0.85h15.25c0.47,0,0.85-0.38,0.85-0.85v-18.06c0-1.87,1.52-3.39,3.39-3.39h8.47
					c1.87,0,3.39,1.52,3.39,3.39v18.06c0,0.47,0.38,0.85,0.85,0.85h15.25c0.47,0,0.85-0.38,0.85-0.85v-26.68
					C194.99,188.95,194.57,188.01,193.82,187.37z"/>
				<path class="st0" d="M202,178.96l-26.79-23.2c-2.75-2.38-6.83-2.38-9.59,0l-10.41,9.02v-7.59h-9.45v15.77l-6.93,6
					c-1.52,1.31-1.6,3.64-0.18,5.06h0c1.28,1.28,3.34,1.36,4.71,0.17l24.65-21.35c1.38-1.19,3.42-1.19,4.79,0l24.65,21.35
					c1.37,1.19,3.43,1.11,4.71-0.17C203.6,182.6,203.52,180.27,202,178.96z"/>
			</g>
		</g>
	</g>
	<path class="st0" d="M133.58,196.99h-4.61l-6.09-32.51c3.18,0.5,6.41,0.76,9.63,0.76c1.99,0,3.97-0.11,5.94-0.3l3.08-5.43
		c-6.49,1.04-13.18,0.96-19.64-0.26l-1.92-10.25c2.09-3.48,2.77-7.78,2.96-10.56c2.77,1.19,6.02,1.89,9.81,1.92
		c3.58-0.02,6.67-0.67,9.34-1.74c0.23,2.87,0.96,7.08,3.09,10.47l-1.12,5.99l6.07-10.69l-0.8-0.22l0,0c-0.35-0.1-0.71-0.1-1.06-0.07
		c-1.08-3-1.33-6.5-1.3-8.27c5.19-4,7.91-10.06,8.75-15.82c0.85-0.22,1.84-0.65,2.91-1.42c1.33-0.95,2.27-2.42,2.64-4.14
		c1.03-4.69,0.63-7.99-1.23-10.1c-0.55-0.62-1.24-1.05-1.99-1.39c1.74-4.56,3.61-11.49,2.62-18.67
		c-1.44-10.44-9.58-18.97-20.26-21.22c-7.32-1.54-14.21,0.36-19.97,5.5c-2.44,0.05-8.28,0.65-12.72,5.1
		c-3.86,3.87-5.66,9.56-5.34,16.92c0.2,4.53,1.62,8.97,4.1,12.88c-0.39,0.27-0.76,0.55-1.07,0.91c-1.84,2.1-2.23,5.4-1.2,10.08
		c0.38,1.72,1.32,3.19,2.64,4.14c1.07,0.77,2.06,1.2,2.91,1.42c0.81,5.59,3.39,11.45,8.27,15.45l0.01,0.41
		c0.05,1.59-0.19,5.17-1.21,8.24c-0.32-0.02-0.65-0.03-0.97,0.06l-11.84,3.29c-0.85,0.24-1.54,0.83-1.89,1.64
		c-0.26,0.59-0.31,1.23-0.16,1.84l-5.43,1.45c0,0,0,0-0.01,0l-5.17,1.38c-9.45,2.52-16.05,11.04-16.05,20.73v24.5
		c0,1.65,1.34,2.99,2.99,2.99h55.62L133.58,196.99z M111.24,77.17c3.37-3.37,8.08-3.64,9.54-3.64c0.18,0,0.31,0,0.39,0.01
		c0.76,0.02,1.51-0.26,2.08-0.8c4.71-4.46,10.15-6.08,16.14-4.82c8.63,1.82,15.21,8.66,16.36,17.03c0.59,4.31-0.04,8.58-1,12.13
		c-0.58-1.78-1.39-3.43-2.42-4.92c-2.34-3.4-6.3-5.44-10.6-5.46c-14.95-0.09-18.59-5.21-18.95-5.79c-0.72-1.16-2.18-1.64-3.46-1.16
		c-1.75,0.67-9.45,4.37-10.18,18.13c-1.05-2.39-1.66-4.94-1.77-7.52C107.09,84.44,108.4,80.01,111.24,77.17z M114.52,117.86
		c-0.06-0.78-0.42-1.48-1.02-1.98c-0.53-0.45-1.18-0.68-1.88-0.68c-0.09,0-0.19,0-0.28,0.01c-0.02-0.01-0.57,0.05-1.6-0.69
		c-0.32-0.23-0.57-0.66-0.68-1.16c-0.73-3.31-0.43-5.13,0.09-5.73c0.12-0.13,0.28-0.19,0.44-0.23c0.84,0.7,1.99,0.91,3.01,0.45
		c1.16-0.52,1.85-1.72,1.72-3c-1.44-13.3,2.98-18.13,5.45-19.77c2.45,2.54,8.43,6.51,21.92,6.59c2.67,0.02,5.11,1.25,6.53,3.31
		c1.88,2.73,2.78,6.24,2.68,10.42c-0.03,1.38,0.88,2.57,2.22,2.9c0.23,0.06,0.47,0.09,0.7,0.09c0.82,0,1.59-0.35,2.13-0.95
		c0.13,0.05,0.26,0.08,0.36,0.19c0.52,0.59,0.82,2.41,0.1,5.74c-0.11,0.5-0.36,0.94-0.68,1.16c-1.01,0.73-1.57,0.69-1.61,0.68
		c-0.77-0.07-1.55,0.17-2.15,0.67c-0.59,0.5-0.96,1.2-1.02,1.98c-0.24,2.9-2.24,17.4-18.2,17.51
		C117.17,135.26,114.86,121.94,114.52,117.86z M115.02,149.55l7.09,37.88l-12.87-20.43l2.8-2.6c0.94-0.89,1.19-2.31,0.6-3.46
		l-4.85-9.39L115.02,149.55z M80.28,196.99v-22.51c0-6.89,4.39-12.97,10.81-15.37c-1.17,2.66-2.07,6.23-1.96,10.82
		c-2.07,1.12-3.8,2.87-4.98,5.09c-1.9,3.57-2.24,8.01-0.94,12.2c0.36,1.16,0.91,2.21,1.45,3.17l0.52,0.85
		c0.47,0.77,1.46,1.04,2.26,0.61l3.04-1.61c1.29-0.68,1.73-2.33,0.91-3.58c-0.72-1.09-2.19-1.38-3.34-0.77l-0.03,0.02
		c-0.02-0.05-0.04-0.11-0.05-0.16c-0.91-2.93-0.7-5.99,0.58-8.39c0.67-1.25,1.93-2.89,4.16-3.56c4.28-1.3,9.11,2,10.77,7.33
		c0.05,0.18,0.11,0.36,0.15,0.55l-0.36,0.1c-1.33,0.36-2.11,1.73-1.75,3.06c0.36,1.33,1.72,2.11,3.06,1.75l2.42-0.66l0.82-0.28
		c0.76-0.25,1.24-1,1.16-1.79l-0.07-0.72c-0.12-1.27-0.35-2.44-0.67-3.48c-2.12-6.85-8.09-11.33-14.13-11.09
		c0.16-7.03,3.2-10.56,4.22-11.53l5.87-1.57l3.29,6.36l-2.89,2.69c-1.02,0.95-1.23,2.49-0.49,3.69l18.13,28.78H80.28z"/>
</g>
</svg>
