<?xml version="1.0" encoding="utf-8"?>
<!-- Generator: Adobe Illustrator 21.1.0, SVG Export Plug-In . SVG Version: 6.00 Build 0)  -->
<svg version="1.1" id="Capa_1" xmlns="http://www.w3.org/2000/svg" xmlns:xlink="http://www.w3.org/1999/xlink" x="0px" y="0px"
	 viewBox="0 0 280 280" style="enable-background:new 0 0 280 280;" xml:space="preserve">
<style type="text/css">
	.st0{clip-path:url(#SVGID_2_);fill-rule:evenodd;clip-rule:evenodd;fill:#FFFFFF;}
</style>
<g>
	<defs>
		<rect id="SVGID_1_" width="280" height="280"/>
	</defs>
	<clipPath id="SVGID_2_">
		<use xlink:href="#SVGID_1_"  style="overflow:visible;"/>
	</clipPath>
	<path class="st0" d="M181.5,154.6c2.8,0,6.6-2.5,11.6-4.9c34.8-16.6,52.1,22.3,40,50.7c-3.9,9.1-8.5,18-14.6,25.7
		c-18,22.4-55.7,22.4-73.9,0.2c-6.3-7.7-10.8-16.6-14.7-25.9c-12.1-28.5,5.1-67.4,40-50.8C174.9,152.1,178.7,154.6,181.5,154.6
		 M95.5,42.9c-10.1,0-38.5,33.5-38.5,43.6v123.8c0,5,2.1,9.6,5.4,12.9c3.3,3.3,7.9,5.4,12.9,5.4h41.2c3.3,0,6-2.7,6-6
		c0-3.3-2.7-6-6-6H75.3c-1.7,0-3.3-0.7-4.5-1.9c-1.2-1.2-1.9-2.7-1.9-4.5V90.1H84c10.1,0,18.3-8.3,18.3-18.3V54.8h83.3
		c1.7,0,3.3,0.7,4.5,1.9c1.2,1.2,1.9,2.8,1.9,4.5v28.9c0,3.3,2.7,6,6,6c3.3,0,6-2.7,6-6V61.2c0-5-2.1-9.6-5.4-12.9
		c-3.3-3.3-7.9-5.4-12.9-5.4H95.5z M216.2,108.3c1.1,9.6-1.9,19.7-9.2,27.2c-6.8,7-16,10.4-25.1,10.1c-1.1-9.6,1.9-19.7,9.2-27.1
		C197.9,111.4,207.1,108,216.2,108.3"/>
</g>
</svg>
