<?xml version="1.0" encoding="utf-8"?>
<!-- Generator: Adobe Illustrator 24.1.3, SVG Export Plug-In . SVG Version: 6.00 Build 0)  -->
<svg version="1.1" id="Layer_1" xmlns="http://www.w3.org/2000/svg" xmlns:xlink="http://www.w3.org/1999/xlink" x="0px" y="0px"
	 viewBox="0 0 280 280" style="enable-background:new 0 0 280 280;" xml:space="preserve">
<style type="text/css">
	.st0{fill:#00A2B8;}
</style>
<g>
	<path class="st0" d="M139.45,137.83c11.11,0,20.12-9.01,20.12-20.12s-9.01-20.12-20.12-20.12c-11.11,0-20.12,9.01-20.12,20.12
		S128.34,137.83,139.45,137.83z M126.86,115.1c0-0.66,0.53-1.19,1.19-1.19h6.41c0.66,0,1.19-0.53,1.19-1.19v-6.41
		c0-0.66,0.53-1.19,1.19-1.19h5.22c0.66,0,1.19,0.53,1.19,1.19v6.41c0,0.66,0.53,1.19,1.19,1.19h6.41c0.66,0,1.19,0.53,1.19,1.19
		v5.22c0,0.66-0.53,1.19-1.19,1.19h-6.41c-0.66,0-1.19,0.53-1.19,1.19v6.41c0,0.66-0.53,1.19-1.19,1.19h-5.22
		c-0.66,0-1.19-0.53-1.19-1.19v-6.41c0-0.66-0.53-1.19-1.19-1.19h-6.41c-0.66,0-1.19-0.53-1.19-1.19V115.1z"/>
	<path class="st0" d="M182.36,152.71H96.54c-1.17,0-2.11,0.94-2.11,2.11c0,1.17,0.94,2.11,2.11,2.11h85.82
		c1.17,0,2.11-0.94,2.11-2.11C184.47,153.65,183.53,152.71,182.36,152.71z"/>
	<path class="st0" d="M182.36,167.08H96.54c-1.17,0-2.11,0.94-2.11,2.11c0,1.17,0.94,2.11,2.11,2.11h85.82
		c1.17,0,2.11-0.94,2.11-2.11C184.47,168.03,183.53,167.08,182.36,167.08z"/>
	<path class="st0" d="M182.36,181.46H96.54c-1.17,0-2.11,0.94-2.11,2.11c0,1.17,0.94,2.11,2.11,2.11h85.82
		c1.17,0,2.11-0.94,2.11-2.11C184.47,182.4,183.53,181.46,182.36,181.46z"/>
	<path class="st0" d="M182.36,195.83H96.54c-1.17,0-2.11,0.94-2.11,2.11c0,1.17,0.94,2.11,2.11,2.11h85.82
		c1.17,0,2.11-0.94,2.11-2.11C184.47,196.78,183.53,195.83,182.36,195.83z"/>
	<path class="st0" d="M154.51,210.21H96.54c-1.17,0-2.11,0.94-2.11,2.11c0,1.17,0.94,2.11,2.11,2.11h57.96
		c1.17,0,2.11-0.94,2.11-2.11C156.62,211.15,155.67,210.21,154.51,210.21z"/>
	<path class="st0" d="M202.2,62.91H186c0.44,3.78-0.75,7.59-3.28,10.44c-2.54,2.86-6.19,4.5-10.02,4.5h-66.5
		c-3.83,0-7.48-1.64-10.02-4.5c-2.53-2.85-3.72-6.65-3.28-10.44h-16.2c-5.36,0-9.71,4.35-9.71,9.71v158.97
		c0,5.36,4.35,9.71,9.71,9.71H202.2c5.36,0,9.71-4.35,9.71-9.71V72.62C211.9,67.26,207.56,62.91,202.2,62.91z M199.38,222.59
		c0,3.34-2.71,6.05-6.05,6.05H85.57c-3.34,0-6.05-2.71-6.05-6.05V95.97c0-3.34,2.71-6.05,6.05-6.05h107.76
		c3.34,0,6.05,2.71,6.05,6.05V222.59z"/>
	<path class="st0" d="M106.2,69.42h66.5c2.97,0,5.27-2.59,4.91-5.54l-1.34-11.16c-0.3-2.49-2.41-4.36-4.91-4.36h-7.05
		c-3.28,0-6.23-2.01-7.44-5.06l-0.23-0.57c-1.21-3.05-4.15-5.06-7.44-5.06H129.7c-3.28,0-6.23,2.01-7.44,5.06l-0.23,0.57
		c-1.21,3.05-4.15,5.06-7.44,5.06h-7.05c-2.5,0-4.61,1.87-4.91,4.36l-1.34,11.16C100.94,66.82,103.24,69.42,106.2,69.42z"/>
</g>
</svg>
