<?xml version="1.0" encoding="utf-8"?>
<!-- Generator: Adobe Illustrator 21.1.0, SVG Export Plug-In . SVG Version: 6.00 Build 0)  -->
<svg version="1.1" id="Capa_1" xmlns="http://www.w3.org/2000/svg" xmlns:xlink="http://www.w3.org/1999/xlink" x="0px" y="0px"
	 viewBox="0 0 280 280" style="enable-background:new 0 0 280 280;" xml:space="preserve">
<style type="text/css">
	.st0{clip-path:url(#SVGID_2_);fill:#FFFFFF;}
</style>
<g>
	<defs>
		<rect id="SVGID_1_" width="280" height="280"/>
	</defs>
	<clipPath id="SVGID_2_">
		<use xlink:href="#SVGID_1_"  style="overflow:visible;"/>
	</clipPath>
	<path class="st0" d="M135.6,131c11.1,0,20.1-9,20.1-20.1c0-11.1-9-20.1-20.1-20.1c-11.1,0-20.1,9-20.1,20.1
		C115.5,122,124.5,131,135.6,131 M123,108.2c0-0.7,0.5-1.2,1.2-1.2h6.4c0.7,0,1.2-0.5,1.2-1.2v-6.4c0-0.7,0.5-1.2,1.2-1.2h5.2
		c0.7,0,1.2,0.5,1.2,1.2v6.4c0,0.7,0.5,1.2,1.2,1.2h6.4c0.7,0,1.2,0.5,1.2,1.2v5.2c0,0.7-0.5,1.2-1.2,1.2h-6.4
		c-0.7,0-1.2,0.5-1.2,1.2v6.4c0,0.7-0.5,1.2-1.2,1.2H133c-0.7,0-1.2-0.5-1.2-1.2v-6.4c0-0.7-0.5-1.2-1.2-1.2h-6.4
		c-0.7,0-1.2-0.5-1.2-1.2V108.2z"/>
	<path class="st0" d="M178.5,145.8H92.7c-1.2,0-2.1,0.9-2.1,2.1c0,1.2,0.9,2.1,2.1,2.1h85.8c1.2,0,2.1-0.9,2.1-2.1
		C180.6,146.8,179.7,145.8,178.5,145.8"/>
	<path class="st0" d="M178.5,160.2H92.7c-1.2,0-2.1,0.9-2.1,2.1c0,1.2,0.9,2.1,2.1,2.1h85.8c1.2,0,2.1-0.9,2.1-2.1
		C180.6,161.2,179.7,160.2,178.5,160.2"/>
	<path class="st0" d="M178.5,174.6H92.7c-1.2,0-2.1,0.9-2.1,2.1c0,1.2,0.9,2.1,2.1,2.1h85.8c1.2,0,2.1-0.9,2.1-2.1
		C180.6,175.5,179.7,174.6,178.5,174.6"/>
	<path class="st0" d="M178.5,189H92.7c-1.2,0-2.1,0.9-2.1,2.1c0,1.2,0.9,2.1,2.1,2.1h85.8c1.2,0,2.1-0.9,2.1-2.1
		C180.6,189.9,179.7,189,178.5,189"/>
	<path class="st0" d="M150.7,203.3h-58c-1.2,0-2.1,0.9-2.1,2.1c0,1.2,0.9,2.1,2.1,2.1h58c1.2,0,2.1-0.9,2.1-2.1
		C152.8,204.3,151.8,203.3,150.7,203.3"/>
	<path class="st0" d="M198.4,56.1h-16.2c0.4,3.8-0.7,7.6-3.3,10.4c-2.5,2.9-6.2,4.5-10,4.5h-66.5c-3.8,0-7.5-1.6-10-4.5
		c-2.5-2.9-3.7-6.7-3.3-10.4H72.9c-5.4,0-9.7,4.3-9.7,9.7v159c0,5.4,4.3,9.7,9.7,9.7h125.5c5.4,0,9.7-4.3,9.7-9.7v-159
		C208.1,60.4,203.7,56.1,198.4,56.1 M195.6,215.7c0,3.3-2.7,6-6.1,6H81.7c-3.3,0-6-2.7-6-6V89.1c0-3.3,2.7-6.1,6-6.1h107.8
		c3.3,0,6.1,2.7,6.1,6.1V215.7z"/>
	<path class="st0" d="M102.4,62.6h66.5c3,0,5.3-2.6,4.9-5.5l-1.3-11.2c-0.3-2.5-2.4-4.4-4.9-4.4h-7.1c-3.3,0-6.2-2-7.4-5.1l-0.2-0.6
		c-1.2-3.1-4.2-5.1-7.4-5.1h-19.5c-3.3,0-6.2,2-7.4,5.1l-0.2,0.6c-1.2,3.1-4.2,5.1-7.4,5.1h-7.1c-2.5,0-4.6,1.9-4.9,4.4L97.5,57
		C97.1,60,99.4,62.6,102.4,62.6"/>
</g>
</svg>
