<?xml version="1.0" encoding="utf-8"?>
<!-- Generator: Adobe Illustrator 21.1.0, SVG Export Plug-In . SVG Version: 6.00 Build 0)  -->
<svg version="1.1" id="Capa_1" xmlns="http://www.w3.org/2000/svg" xmlns:xlink="http://www.w3.org/1999/xlink" x="0px" y="0px"
	 viewBox="0 0 280 280" style="enable-background:new 0 0 280 280;" xml:space="preserve">
<style type="text/css">
	.st0{clip-path:url(#SVGID_2_);fill:#FFFFFF;}
</style>
<g>
	<defs>
		<rect id="SVGID_1_" width="280" height="280"/>
	</defs>
	<clipPath id="SVGID_2_">
		<use xlink:href="#SVGID_1_"  style="overflow:visible;"/>
	</clipPath>
	<path class="st0" d="M184.9,81.8H165c-0.8-1-1.7-2-2.7-2.8l8.9-15.5c0.9-1.6,0.4-3.6-1.2-4.5l-8.6-5l5-8.6c0.9-1.6,0.4-3.6-1.2-4.5
		l-11.4-6.6c-1.6-0.9-3.6-0.4-4.5,1.2l-5,8.6l-8.6-5c-1.6-0.9-3.6-0.4-4.5,1.2l-36.4,63c-0.9,1.6-0.4,3.6,1.2,4.5l8.6,5l-5,8.6
		c-0.9,1.6-0.4,3.6,1.2,4.5l11.4,6.6c1.6,0.9,3.6,0.4,4.5-1.2l5-8.6l8.6,5c0.5,0.3,1.1,0.4,1.6,0.4c0.3,0,0.6,0,0.9-0.1
		c0.8-0.2,1.6-0.8,2-1.5l11.1-19.3c6.9,2.7,14.7,0.4,19-5.5h19.9c9.1,0,16.5,7.4,16.5,16.5v33c0,9.1-7.4,16.5-16.5,16.5H160
		c-1.5-4.2-3.8-8-6.9-11.1c-10.7-10.7-27.9-11.6-39.7-2.1H65.9c-1.8,0-3.3,1.5-3.3,3.3v13.2c0,1.8,1.5,3.3,3.3,3.3h36.6
		c-0.1,1.1-0.2,2.2-0.2,3.3v23.1H65.9c-5.5,0-9.9,4.4-9.9,9.9v13.2c0,5.5,4.4,9.9,9.9,9.9h132.2c5.5,0,9.9-4.4,9.9-9.9v-13.2
		c0-5.5-4.4-9.9-9.9-9.9h-36.4v-13.2h23.1c20.1,0,36.3-16.3,36.4-36.4v-33C221.2,98.1,205,81.9,184.9,81.8 M153.3,41.7L159,45
		l-3.3,5.7l-5.7-3.3L153.3,41.7z M112.7,125.1l-5.7-3.3l3.3-5.7l5.7,3.3L112.7,125.1z M130.8,120.3l-28.6-16.5l33-57.2l28.6,16.5
		l-7.4,12.8c-0.1,0-0.2,0-0.3-0.1c-0.5-0.1-1-0.2-1.4-0.3c-0.2,0-0.5-0.1-0.7-0.1c-0.7-0.1-1.5-0.1-2.2-0.1c-4.9,0-9.6,2.1-12.7,5.9
		c-3.1,3.8-4.4,8.8-3.5,13.6c0,0.2,0.1,0.4,0.1,0.6c0.2,0.9,0.5,1.9,0.9,2.7c0.1,0.2,0.1,0.3,0.2,0.5c0.4,0.8,0.8,1.6,1.3,2.3
		c0.1,0.1,0.1,0.2,0.2,0.4c0.6,0.8,1.2,1.5,1.9,2.2c0.1,0.1,0.1,0.2,0.2,0.2L130.8,120.3z M151.8,101.7c-1.9,0-3.8-0.6-5.4-1.6
		c-3.7-2.4-5.4-6.9-4.1-11.1c1.2-4.2,5.1-7.1,9.5-7.1c3.5,0,6.8,1.9,8.6,5c1.8,3.1,1.8,6.8,0,9.9
		C158.7,99.8,155.4,101.7,151.8,101.7 M69.2,161.2h38.1c-0.1,0.2-0.2,0.4-0.3,0.6c-0.3,0.4-0.5,0.8-0.7,1.2
		c-0.4,0.8-0.9,1.6-1.2,2.4c-0.2,0.5-0.4,0.9-0.6,1.4c-0.1,0.3-0.3,0.7-0.4,1H69.2V161.2z M201.4,210.7v13.2c0,1.8-1.5,3.3-3.3,3.3
		H65.9c-1.8,0-3.3-1.5-3.3-3.3v-13.2c0-1.8,1.5-3.3,3.3-3.3h132.2C199.9,207.4,201.4,208.9,201.4,210.7 M108.9,200.8v-23.1
		c0-3.1,0.6-6.2,1.8-9.1c3-7.1,9.3-12.2,16.9-13.7c7.5-1.5,15.3,0.9,20.8,6.3c2.9,2.9,5,6.6,6.1,10.6c0.5,1.9,0.7,3.8,0.7,5.8v23.1
		H108.9z M214.6,151.2c0,16.4-13.3,29.7-29.7,29.7h-23.1v-3.3c0-1.1-0.1-2.2-0.2-3.3h23.3c12.8,0,23.1-10.4,23.1-23.1v-33
		c0-12.8-10.4-23.1-23.1-23.1H168c0-0.1,0-0.2,0-0.4c0.4-1.9,0.4-3.9,0-5.9c0-0.1,0-0.2,0-0.4h16.9c16.4,0,29.7,13.3,29.7,29.7
		V151.2z"/>
	<path class="st0" d="M132,161.2c-9.1,0-16.5,7.4-16.5,16.5c0,9.1,7.4,16.5,16.5,16.5c9.1,0,16.5-7.4,16.5-16.5
		C148.5,168.6,141.1,161.2,132,161.2 M132,187.6c-5.5,0-9.9-4.4-9.9-9.9s4.4-9.9,9.9-9.9c5.5,0,9.9,4.4,9.9,9.9
		S137.5,187.6,132,187.6"/>
</g>
</svg>
