<?xml version="1.0" encoding="utf-8"?>
<!-- Generator: Adobe Illustrator 24.1.3, SVG Export Plug-In . SVG Version: 6.00 Build 0)  -->
<svg version="1.1" id="Layer_1" xmlns="http://www.w3.org/2000/svg" xmlns:xlink="http://www.w3.org/1999/xlink" x="0px" y="0px"
	 viewBox="0 0 280 280" style="enable-background:new 0 0 280 280;" xml:space="preserve">
<style type="text/css">
	.st0{fill:#FFFFFF;stroke:#00A2B8;stroke-width:4.6785;stroke-linecap:round;stroke-linejoin:round;stroke-miterlimit:10;}
	.st1{fill:#00A2B8;}
	.st2{fill:#FFFFFF;}
	.st3{fill:none;}
</style>
<g>
	<polygon class="st0" points="204.97,226.98 73.93,226.98 73.93,97.17 119.12,51.98 204.97,51.98 	"/>
	<rect x="84.42" y="176.76" class="st1" width="110.06" height="38.65"/>
	<g>
		<path class="st2" d="M105.17,209.2v-25.59h8.29c3.14,0,5.19,0.13,6.15,0.38c1.47,0.38,2.69,1.22,3.68,2.5
			c0.99,1.29,1.48,2.95,1.48,4.98c0,1.57-0.28,2.89-0.85,3.96c-0.57,1.07-1.3,1.91-2.17,2.52c-0.88,0.61-1.77,1.02-2.68,1.21
			c-1.23,0.24-3.02,0.37-5.36,0.37h-3.37v9.65H105.17z M110.33,187.93v7.26h2.83c2.04,0,3.4-0.13,4.08-0.4
			c0.69-0.27,1.22-0.69,1.62-1.26c0.39-0.57,0.58-1.23,0.58-1.99c0-0.93-0.27-1.7-0.82-2.3c-0.55-0.6-1.24-0.98-2.08-1.13
			c-0.62-0.12-1.86-0.17-3.72-0.17H110.33z"/>
		<path class="st2" d="M128.99,183.61h9.44c2.13,0,3.75,0.16,4.87,0.49c1.5,0.44,2.79,1.23,3.86,2.36c1.07,1.13,1.89,2.51,2.44,4.14
			c0.56,1.64,0.84,3.65,0.84,6.05c0,2.11-0.26,3.92-0.79,5.45c-0.64,1.86-1.55,3.37-2.74,4.52c-0.9,0.87-2.11,1.55-3.63,2.04
			c-1.14,0.36-2.66,0.54-4.57,0.54h-9.72V183.61z M134.16,187.93v16.95h3.86c1.44,0,2.48-0.08,3.13-0.24
			c0.84-0.21,1.53-0.56,2.09-1.06c0.55-0.5,1-1.32,1.35-2.47c0.35-1.15,0.52-2.71,0.52-4.69c0-1.98-0.17-3.5-0.52-4.56
			c-0.35-1.06-0.84-1.88-1.47-2.48c-0.63-0.59-1.43-1-2.39-1.21c-0.72-0.16-2.14-0.24-4.24-0.24H134.16z"/>
		<path class="st2" d="M154.86,209.2v-25.59h17.54v4.33h-12.38v6.06h10.68v4.33h-10.68v10.88H154.86z"/>
	</g>
	<rect x="142.06" y="70.56" class="st1" width="42.82" height="42.83"/>
	<g>
		<rect x="87.06" y="119.66" class="st1" width="97.82" height="7.18"/>
		<rect x="87.06" y="134.83" class="st1" width="97.82" height="7.18"/>
		<rect x="87.06" y="149.99" class="st1" width="97.82" height="7.18"/>
		<rect x="87.06" y="165.17" class="st1" width="97.82" height="7.18"/>
		<rect x="101.1" y="74.15" class="st1" width="33.36" height="7.18"/>
		<rect x="84.42" y="89.31" class="st1" width="50.03" height="7.18"/>
		<rect x="84.42" y="104.49" class="st1" width="50.03" height="7.18"/>
	</g>
	<polygon class="st0" points="119.12,97.17 73.93,97.17 119.12,51.98 	"/>
</g>
<line class="st3" x1="-294" y1="-124" x2="-294" y2="-128"/>
</svg>
