<?xml version="1.0" encoding="utf-8"?>
<!-- Generator: Adobe Illustrator 24.1.3, SVG Export Plug-In . SVG Version: 6.00 Build 0)  -->
<svg version="1.1" id="Layer_1" xmlns="http://www.w3.org/2000/svg" xmlns:xlink="http://www.w3.org/1999/xlink" x="0px" y="0px"
	 viewBox="0 0 280 280" style="enable-background:new 0 0 280 280;" xml:space="preserve">
<style type="text/css">
	.st0{fill:none;}
	.st1{fill:#00A2B8;}
</style>
<line class="st0" x1="-294" y1="-124" x2="-294" y2="-128"/>
<g>
	<path class="st1" d="M204.36,74.57h-10.82V63.76c0-5.97-4.84-10.82-10.81-10.82H74.54c-5.98,0-10.82,4.85-10.82,10.82v129.82
		c0,5.97,4.84,10.81,10.82,10.81h10.82v10.82c0,5.97,4.84,10.82,10.82,10.82h108.19c5.98,0,10.82-4.85,10.82-10.82V85.4
		C215.18,79.43,210.35,74.57,204.36,74.57z M74.54,193.57V63.76h108.19v129.82H74.54z M204.36,215.21H96.18v-10.82h86.55
		c5.97,0,10.81-4.84,10.81-10.81V85.4h10.82V215.21z"/>
	<path class="st1" d="M166.5,85.4H112.4c-2.97,0-5.4,2.43-5.4,5.4c0,2.98,2.43,5.41,5.4,5.41h54.09c2.98,0,5.41-2.43,5.41-5.41
		C171.91,87.83,169.48,85.4,166.5,85.4z"/>
	<path class="st1" d="M166.5,117.85H90.77c-2.98,0-5.41,2.43-5.41,5.4c0,2.98,2.43,5.41,5.41,5.41h75.73c2.98,0,5.41-2.43,5.41-5.41
		C171.91,120.28,169.48,117.85,166.5,117.85z"/>
	<path class="st1" d="M166.5,139.48H90.77c-2.98,0-5.41,2.43-5.41,5.41c0,2.98,2.43,5.41,5.41,5.41h75.73
		c2.98,0,5.41-2.43,5.41-5.41C171.91,141.91,169.48,139.48,166.5,139.48z"/>
	<path class="st1" d="M166.5,161.12H90.77c-2.98,0-5.41,2.43-5.41,5.4c0,2.98,2.43,5.41,5.41,5.41h75.73c2.98,0,5.41-2.43,5.41-5.41
		C171.91,163.55,169.48,161.12,166.5,161.12z"/>
</g>
</svg>
